<?xml version="1.0" standalone="no"?>
<!DOCTYPE svg PUBLIC "-//W3C//DTD SVG 20010904//EN"
 "http://www.w3.org/TR/2001/REC-SVG-20010904/DTD/svg10.dtd">
<svg version="1.0" xmlns="http://www.w3.org/2000/svg"
 width="512.000000pt" height="512.000000pt" viewBox="0 0 512.000000 512.000000"
 preserveAspectRatio="xMidYMid meet">

<g transform="translate(0.000000,512.000000) scale(0.100000,-0.100000)"
fill="#000000" stroke="none">
<path d="M2066 3985 c-447 -63 -850 -299 -1116 -653 -42 -57 -115 -169 -161
-249 -84 -147 -119 -192 -169 -218 -15 -8 -100 -32 -190 -55 -89 -22 -185 -52
-212 -66 -104 -53 -182 -156 -208 -274 -8 -38 -11 -158 -8 -391 l3 -335 37
-76 c45 -91 103 -147 196 -191 l67 -32 195 -3 196 -4 28 -50 c59 -104 181
-198 316 -244 77 -26 244 -26 320 0 137 47 232 118 300 224 l45 71 855 0 855
1 29 -51 c59 -105 180 -199 316 -245 77 -26 244 -26 320 0 136 47 232 118 300
224 l45 69 196 4 195 4 76 37 c91 45 147 103 191 196 l32 67 3 195 c3 120 -1
224 -8 270 -32 200 -153 386 -322 493 -108 69 -175 90 -427 132 -226 38 -236
45 -356 255 -99 174 -168 270 -280 388 -243 257 -564 430 -925 498 -120 22
-597 28 -734 9z m738 -174 c201 -42 383 -117 545 -225 225 -150 375 -318 531
-596 74 -131 114 -185 168 -222 69 -48 125 -65 322 -98 172 -29 270 -58 322
-94 21 -15 17 -16 -70 -16 -87 0 -95 -2 -119 -26 -24 -24 -25 -30 -20 -92 9
-88 60 -194 123 -251 72 -68 158 -103 265 -109 l89 -5 0 -135 c0 -168 -10
-202 -75 -267 -65 -66 -99 -75 -271 -75 l-139 0 3 68 c7 148 -52 296 -163 407
-114 115 -234 165 -395 165 -161 0 -281 -50 -395 -165 -111 -111 -170 -259
-163 -407 l3 -68 -805 0 -805 0 3 68 c7 148 -52 296 -163 407 -114 115 -234
165 -395 165 -161 0 -281 -50 -395 -165 -111 -111 -170 -259 -163 -407 l3 -68
-139 0 c-172 0 -206 9 -271 75 -66 65 -75 99 -75 269 l0 136 94 0 c74 0 98 4
115 18 17 13 33 59 66 192 25 96 45 185 45 196 0 12 -9 32 -19 45 -17 22 -29
24 -123 29 l-103 5 32 23 c20 14 97 40 200 66 93 24 189 52 215 64 82 36 140
101 232 261 115 200 192 304 303 415 241 240 543 388 890 435 37 5 187 8 333
6 220 -3 282 -7 364 -24z m-2526 -1491 l-20 -80 -49 0 -49 0 0 80 0 80 69 0
69 0 -20 -80z m4624 20 c14 -30 29 -65 33 -77 6 -22 3 -23 -41 -23 -78 0 -124
20 -181 77 -79 78 -75 84 55 81 l107 -3 27 -55z m-3538 -298 c91 -42 149 -100
194 -190 35 -72 37 -81 37 -172 0 -91 -2 -100 -37 -172 -45 -91 -103 -147
-196 -191 -61 -29 -76 -32 -162 -32 -86 0 -101 3 -162 32 -93 44 -151 100
-196 191 -35 72 -37 81 -37 171 0 87 3 102 32 163 40 85 97 147 172 186 78 42
122 52 213 48 61 -3 92 -11 142 -34z m2720 0 c91 -42 149 -100 194 -190 35
-72 37 -81 37 -172 0 -91 -2 -100 -37 -172 -45 -91 -103 -147 -196 -191 -61
-29 -76 -32 -162 -32 -86 0 -101 3 -162 32 -93 44 -151 100 -196 191 -35 72
-37 81 -37 171 0 87 3 102 32 163 40 85 97 147 172 186 78 42 122 52 213 48
61 -3 92 -11 142 -34z"/>
<path d="M2010 3745 c-353 -56 -660 -267 -850 -585 -47 -77 -120 -253 -120
-287 0 -13 11 -35 25 -48 l24 -25 591 0 591 0 24 25 25 24 0 431 0 431 -25 24
c-22 23 -31 25 -112 24 -48 -1 -126 -7 -173 -14z m150 -465 l0 -320 -460 0
-460 0 15 38 c69 166 236 351 412 456 133 79 314 136 466 144 l27 2 0 -320z"/>
<path d="M2506 3737 l-26 -26 0 -431 0 -431 25 -24 24 -25 591 0 591 0 24 25
c34 33 32 57 -16 171 -68 164 -135 269 -247 386 -68 71 -78 78 -113 78 -29 0
-42 -6 -58 -26 -35 -44 -27 -67 52 -155 74 -82 163 -212 192 -281 l15 -38
-460 0 -460 0 0 321 0 321 68 -7 c93 -10 198 -38 300 -81 124 -51 126 -51 162
-16 53 54 38 98 -50 142 -135 68 -296 108 -471 117 -116 6 -117 6 -143 -20z"/>
<path d="M985 2695 c-16 -15 -25 -36 -25 -55 0 -19 9 -40 25 -55 23 -24 31
-25 135 -25 104 0 112 1 135 25 16 15 25 36 25 55 0 19 -9 40 -25 55 -23 24
-31 25 -135 25 -104 0 -112 -1 -135 -25z"/>
<path d="M2505 2695 c-16 -15 -25 -36 -25 -55 0 -19 9 -40 25 -55 23 -24 31
-25 135 -25 104 0 112 1 135 25 16 15 25 36 25 55 0 19 -9 40 -25 55 -23 24
-31 25 -135 25 -104 0 -112 -1 -135 -25z"/>
<path d="M1120 1907 c-49 -16 -133 -102 -148 -153 -28 -94 -8 -169 63 -239
101 -102 229 -102 330 0 98 97 101 222 8 325 -65 72 -158 97 -253 67z m135
-172 c16 -15 25 -36 25 -55 0 -19 -9 -40 -25 -55 -15 -16 -36 -25 -55 -25 -19
0 -40 9 -55 25 -16 15 -25 36 -25 55 0 19 9 40 25 55 15 16 36 25 55 25 19 0
40 -9 55 -25z"/>
<path d="M3840 1907 c-49 -16 -133 -102 -148 -153 -28 -94 -8 -169 63 -239
101 -102 229 -102 330 0 98 97 101 222 8 325 -65 72 -158 97 -253 67z m135
-172 c50 -49 15 -135 -55 -135 -41 0 -80 39 -80 80 0 41 39 80 80 80 19 0 40
-9 55 -25z"/>
</g>
</svg>
